<mxfile host="app.diagrams.net" modified="2024-03-12T10:29:19.629Z" agent="Mozilla/5.0 (Windows NT 10.0; Win64; x64) AppleWebKit/537.36 (KHTML, like Gecko) Chrome/122.0.0.0 Safari/537.36" etag="TKtBOEjJO30t1J4TQt4J" version="24.0.5" type="device">
  <diagram name="페이지-1" id="U6_bV48dWIlC0jJxIKwr">
    <mxGraphModel dx="1434" dy="746" grid="1" gridSize="10" guides="1" tooltips="1" connect="1" arrows="1" fold="1" page="1" pageScale="1" pageWidth="827" pageHeight="1169" math="0" shadow="0">
      <root>
        <mxCell id="0" />
        <mxCell id="1" parent="0" />
        <mxCell id="3FGsCS7C19DCTk8SNNpi-7" style="edgeStyle=orthogonalEdgeStyle;rounded=0;orthogonalLoop=1;jettySize=auto;html=1;exitX=0.5;exitY=1;exitDx=0;exitDy=0;entryX=0.5;entryY=0;entryDx=0;entryDy=0;" edge="1" parent="1" source="3FGsCS7C19DCTk8SNNpi-1" target="3FGsCS7C19DCTk8SNNpi-2">
          <mxGeometry relative="1" as="geometry" />
        </mxCell>
        <mxCell id="3FGsCS7C19DCTk8SNNpi-1" value="n입력&lt;div&gt;sum=0;&lt;/div&gt;" style="shape=parallelogram;perimeter=parallelogramPerimeter;whiteSpace=wrap;html=1;fixedSize=1;" vertex="1" parent="1">
          <mxGeometry x="290" y="70" width="120" height="60" as="geometry" />
        </mxCell>
        <mxCell id="3FGsCS7C19DCTk8SNNpi-8" style="edgeStyle=orthogonalEdgeStyle;rounded=0;orthogonalLoop=1;jettySize=auto;html=1;exitX=1;exitY=0.5;exitDx=0;exitDy=0;entryX=0;entryY=0.5;entryDx=0;entryDy=0;" edge="1" parent="1" source="3FGsCS7C19DCTk8SNNpi-2" target="3FGsCS7C19DCTk8SNNpi-3">
          <mxGeometry relative="1" as="geometry" />
        </mxCell>
        <mxCell id="3FGsCS7C19DCTk8SNNpi-15" value="F" style="edgeLabel;html=1;align=center;verticalAlign=middle;resizable=0;points=[];" vertex="1" connectable="0" parent="3FGsCS7C19DCTk8SNNpi-8">
          <mxGeometry x="-0.2333" y="4" relative="1" as="geometry">
            <mxPoint as="offset" />
          </mxGeometry>
        </mxCell>
        <mxCell id="3FGsCS7C19DCTk8SNNpi-10" style="edgeStyle=orthogonalEdgeStyle;rounded=0;orthogonalLoop=1;jettySize=auto;html=1;exitX=0.5;exitY=1;exitDx=0;exitDy=0;entryX=0.5;entryY=0;entryDx=0;entryDy=0;" edge="1" parent="1" source="3FGsCS7C19DCTk8SNNpi-2" target="3FGsCS7C19DCTk8SNNpi-4">
          <mxGeometry relative="1" as="geometry" />
        </mxCell>
        <mxCell id="3FGsCS7C19DCTk8SNNpi-14" value="T" style="edgeLabel;html=1;align=center;verticalAlign=middle;resizable=0;points=[];" vertex="1" connectable="0" parent="3FGsCS7C19DCTk8SNNpi-10">
          <mxGeometry x="-0.2286" y="1" relative="1" as="geometry">
            <mxPoint as="offset" />
          </mxGeometry>
        </mxCell>
        <mxCell id="3FGsCS7C19DCTk8SNNpi-2" value="n &amp;gt;= 1" style="rounded=0;whiteSpace=wrap;html=1;" vertex="1" parent="1">
          <mxGeometry x="290" y="190" width="120" height="60" as="geometry" />
        </mxCell>
        <mxCell id="3FGsCS7C19DCTk8SNNpi-9" style="edgeStyle=orthogonalEdgeStyle;rounded=0;orthogonalLoop=1;jettySize=auto;html=1;exitX=0.5;exitY=0;exitDx=0;exitDy=0;entryX=1;entryY=0.5;entryDx=0;entryDy=0;" edge="1" parent="1" source="3FGsCS7C19DCTk8SNNpi-3" target="3FGsCS7C19DCTk8SNNpi-1">
          <mxGeometry relative="1" as="geometry">
            <Array as="points">
              <mxPoint x="530" y="100" />
            </Array>
          </mxGeometry>
        </mxCell>
        <mxCell id="3FGsCS7C19DCTk8SNNpi-3" value="에러 멘트 출력" style="rounded=0;whiteSpace=wrap;html=1;" vertex="1" parent="1">
          <mxGeometry x="470" y="190" width="120" height="60" as="geometry" />
        </mxCell>
        <mxCell id="3FGsCS7C19DCTk8SNNpi-11" style="edgeStyle=orthogonalEdgeStyle;rounded=0;orthogonalLoop=1;jettySize=auto;html=1;exitX=0.5;exitY=1;exitDx=0;exitDy=0;entryX=0.5;entryY=0;entryDx=0;entryDy=0;" edge="1" parent="1" source="3FGsCS7C19DCTk8SNNpi-4" target="3FGsCS7C19DCTk8SNNpi-5">
          <mxGeometry relative="1" as="geometry" />
        </mxCell>
        <mxCell id="3FGsCS7C19DCTk8SNNpi-16" value="F" style="edgeLabel;html=1;align=center;verticalAlign=middle;resizable=0;points=[];" vertex="1" connectable="0" parent="3FGsCS7C19DCTk8SNNpi-11">
          <mxGeometry x="-0.28" y="1" relative="1" as="geometry">
            <mxPoint as="offset" />
          </mxGeometry>
        </mxCell>
        <mxCell id="3FGsCS7C19DCTk8SNNpi-13" style="edgeStyle=orthogonalEdgeStyle;rounded=0;orthogonalLoop=1;jettySize=auto;html=1;exitX=0;exitY=0.5;exitDx=0;exitDy=0;entryX=0;entryY=0.5;entryDx=0;entryDy=0;" edge="1" parent="1" source="3FGsCS7C19DCTk8SNNpi-4" target="3FGsCS7C19DCTk8SNNpi-6">
          <mxGeometry relative="1" as="geometry">
            <Array as="points">
              <mxPoint x="240" y="350" />
              <mxPoint x="240" y="580" />
            </Array>
          </mxGeometry>
        </mxCell>
        <mxCell id="3FGsCS7C19DCTk8SNNpi-17" value="T" style="edgeLabel;html=1;align=center;verticalAlign=middle;resizable=0;points=[];" vertex="1" connectable="0" parent="3FGsCS7C19DCTk8SNNpi-13">
          <mxGeometry x="-0.3758" y="-3" relative="1" as="geometry">
            <mxPoint as="offset" />
          </mxGeometry>
        </mxCell>
        <mxCell id="3FGsCS7C19DCTk8SNNpi-4" value="n &amp;lt;= 0" style="rounded=0;whiteSpace=wrap;html=1;" vertex="1" parent="1">
          <mxGeometry x="290" y="320" width="120" height="60" as="geometry" />
        </mxCell>
        <mxCell id="3FGsCS7C19DCTk8SNNpi-12" style="edgeStyle=orthogonalEdgeStyle;rounded=0;orthogonalLoop=1;jettySize=auto;html=1;exitX=1;exitY=0.5;exitDx=0;exitDy=0;entryX=1;entryY=0.5;entryDx=0;entryDy=0;" edge="1" parent="1" source="3FGsCS7C19DCTk8SNNpi-5" target="3FGsCS7C19DCTk8SNNpi-4">
          <mxGeometry relative="1" as="geometry">
            <Array as="points">
              <mxPoint x="460" y="460" />
              <mxPoint x="460" y="350" />
            </Array>
          </mxGeometry>
        </mxCell>
        <mxCell id="3FGsCS7C19DCTk8SNNpi-5" value="sum+= n&lt;div&gt;n--&lt;/div&gt;" style="rounded=0;whiteSpace=wrap;html=1;" vertex="1" parent="1">
          <mxGeometry x="290" y="430" width="120" height="60" as="geometry" />
        </mxCell>
        <mxCell id="3FGsCS7C19DCTk8SNNpi-6" value="sum출력" style="rounded=0;whiteSpace=wrap;html=1;" vertex="1" parent="1">
          <mxGeometry x="290" y="550" width="120" height="60" as="geometry" />
        </mxCell>
      </root>
    </mxGraphModel>
  </diagram>
</mxfile>
